<svg width="32" height="32" viewBox="0 0 32 32" fill="none" xmlns="http://www.w3.org/2000/svg">
<path d="M28.344 22.8154L22.8421 19.6449C22.0691 19.2009 21.0807 19.465 20.6333 20.236C20.46 20.5397 20.3921 20.8738 20.4249 21.1986V27.3949C20.4249 28.2804 21.1463 29 22.0363 29C22.9241 29 23.6455 28.2804 23.6455 27.3949V23.8318L26.7279 25.6075C27.5008 26.0537 28.4916 25.7874 28.9366 25.0164C29.384 24.2453 29.1193 23.2594 28.344 22.8154Z" fill="#29B5E8"/>
<path d="M14.6606 16.021C14.6699 15.4486 14.3678 14.9159 13.8712 14.6285L8.36924 11.4603C8.13033 11.3224 7.85629 11.25 7.58224 11.25C7.01776 11.25 6.49309 11.5514 6.21202 12.0374C5.77636 12.7897 6.03635 13.7547 6.79056 14.1893L9.96198 16.014L6.79056 17.8411C6.42516 18.0514 6.16283 18.3902 6.05509 18.7967C5.945 19.2033 6.00122 19.6285 6.21202 19.993C6.49309 20.479 7.01776 20.7804 7.5799 20.7804C7.85629 20.7804 8.13033 20.7079 8.36924 20.5701L13.8712 17.4019C14.3631 17.1168 14.6652 16.5888 14.6606 16.021Z" fill="#29B5E8"/>
<path d="M9.61767 9.21495L15.1196 12.3832C15.7614 12.7547 16.5531 12.6332 17.059 12.1402C17.3799 11.8458 17.579 11.4252 17.579 10.9579V4.60748C17.579 3.71963 16.8576 3 15.9699 3C15.0798 3 14.3584 3.71963 14.3584 4.60748V8.22196L11.2338 6.4229C10.4609 5.97663 9.47245 6.24065 9.02508 7.01168C8.5777 7.78271 8.84472 8.76869 9.61767 9.21495Z" fill="#29B5E8"/>
<path d="M21.9895 16.278C21.9895 16.3995 21.9192 16.5678 21.8326 16.6565L19.6519 18.8318C19.5653 18.9182 19.3943 18.9883 19.2725 18.9883H18.7174C18.5956 18.9883 18.4246 18.9182 18.3379 18.8318L16.1549 16.6565C16.0683 16.5678 15.998 16.3995 15.998 16.278V15.7243C15.998 15.6005 16.0683 15.4322 16.1549 15.3458L18.3379 13.1682C18.4246 13.0818 18.5956 13.0117 18.7174 13.0117H19.2725C19.3943 13.0117 19.5653 13.0818 19.6519 13.1682L21.8326 15.3458C21.9192 15.4322 21.9895 15.6005 21.9895 15.7243V16.278ZM20.0431 16.0117V15.9883C20.0431 15.8995 19.9915 15.7757 19.9283 15.7103L19.2842 15.0701C19.2209 15.0047 19.0968 14.9533 19.0054 14.9533H18.982C18.893 14.9533 18.7689 15.0047 18.7033 15.0701L18.0615 15.7103C17.9983 15.7734 17.9467 15.8972 17.9467 15.9883V16.0117C17.9467 16.1028 17.9983 16.2266 18.0615 16.2897L18.7033 16.9322C18.7689 16.9953 18.893 17.0467 18.982 17.0467H19.0054C19.0968 17.0467 19.2209 16.9953 19.2842 16.9322L19.9283 16.2897C19.9915 16.2266 20.0431 16.1028 20.0431 16.0117Z" fill="#29B5E8"/>
<path d="M22.8421 12.3832L28.3441 9.21495C29.117 8.77103 29.384 7.78271 28.9367 7.01168C28.4893 6.24065 27.5009 5.97663 26.7279 6.4229L23.6455 8.1986V4.60748C23.6455 3.71963 22.9241 3 22.0364 3C21.1463 3 20.4249 3.71963 20.4249 4.60748V10.8318C20.3944 11.1542 20.4577 11.4907 20.6333 11.7944C21.0807 12.5654 22.0692 12.8294 22.8421 12.3832Z" fill="#29B5E8"/>
<path d="M16.2228 19.4579C15.8575 19.3879 15.4663 19.4463 15.1196 19.6449L9.61767 22.8154C8.84472 23.2593 8.5777 24.2453 9.02508 25.0164C9.47245 25.7897 10.4609 26.0537 11.2338 25.6075L14.3584 23.8084V27.3949C14.3584 28.2804 15.0798 29 15.9699 29C16.8576 29 17.579 28.2804 17.579 27.3949V21.0444C17.579 20.243 16.9911 19.5794 16.2228 19.4579Z" fill="#29B5E8"/>
<path d="M31.7825 12.0187C31.3375 11.2453 30.3467 10.9813 29.5738 11.4276L24.0718 14.5958C23.5448 14.8995 23.2543 15.4556 23.2637 16.021C23.259 16.5841 23.5495 17.1332 24.0718 17.4322L29.5738 20.6028C30.3467 21.0467 31.3351 20.7827 31.7825 20.0117C32.2299 19.2406 31.9629 18.2547 31.1899 17.8084L28.0747 16.014L31.1899 14.2196C31.9652 13.7757 32.2299 12.7897 31.7825 12.0187Z" fill="#29B5E8"/>
</svg>
