<svg width="32" height="32" viewBox="0 0 32 32" fill="none" xmlns="http://www.w3.org/2000/svg">
<g clip-path="url(#clip0_3_22)">
<path d="M27.5004 24.3882L20.7287 20.486C19.7774 19.9396 18.5608 20.2646 18.0102 21.2135C17.7969 21.5874 17.7133 21.9986 17.7537 22.3983V30.0245C17.7537 31.1143 18.6416 32 19.737 32C20.8296 32 21.7175 31.1143 21.7175 30.0245V25.6391L25.5112 27.8246C26.4626 28.3738 27.682 28.046 28.2297 27.0971C28.7803 26.1481 28.4546 24.9346 27.5004 24.3882Z" fill="#29B5E8"/>
<path d="M10.6591 16.0259C10.6707 15.3213 10.2988 14.6657 9.68765 14.312L2.91599 10.4126C2.62195 10.243 2.28466 10.1538 1.94738 10.1538C1.25262 10.1538 0.60688 10.5248 0.260946 11.1229C-0.275251 12.0489 0.0447382 13.2365 0.972994 13.7714L4.87628 16.0172L0.972994 18.266C0.52328 18.5248 0.200408 18.9418 0.0678005 19.4421C-0.0676905 19.9425 0.00149629 20.4658 0.260946 20.9144C0.60688 21.5126 1.25262 21.8835 1.94449 21.8835C2.28466 21.8835 2.62195 21.7944 2.91599 21.6247L9.68765 17.7254C10.293 17.3745 10.6649 16.7247 10.6591 16.0259Z" fill="#29B5E8"/>
<path d="M4.45251 7.64917L11.2242 11.5485C12.014 12.0058 12.9884 11.8562 13.6111 11.2495C14.0061 10.8871 14.2511 10.3695 14.2511 9.79439V1.97843C14.2511 0.885694 13.3632 0 12.2706 0C11.1752 0 10.2873 0.885694 10.2873 1.97843V6.42703L6.44163 4.2128C5.49031 3.66355 4.27377 3.9885 3.72316 4.93745C3.17255 5.88641 3.50119 7.09993 4.45251 7.64917Z" fill="#29B5E8"/>
<path d="M19.6794 16.3422C19.6794 16.4917 19.5929 16.6988 19.4862 16.808L16.8023 19.4853C16.6957 19.5917 16.4852 19.6779 16.3353 19.6779H15.6521C15.5022 19.6779 15.2918 19.5917 15.1851 19.4853L12.4984 16.808C12.3917 16.6988 12.3052 16.4917 12.3052 16.3422V15.6607C12.3052 15.5083 12.3917 15.3012 12.4984 15.1948L15.1851 12.5147C15.2918 12.4083 15.5022 12.3221 15.6521 12.3221H16.3353C16.4852 12.3221 16.6957 12.4083 16.8023 12.5147L19.4862 15.1948C19.5929 15.3012 19.6794 15.5083 19.6794 15.6607V16.3422ZM17.2838 16.0144V15.9856C17.2838 15.8763 17.2204 15.7239 17.1425 15.6434L16.3498 14.8555C16.2719 14.775 16.1191 14.7117 16.0067 14.7117H15.9779C15.8683 14.7117 15.7155 14.775 15.6348 14.8555L14.8449 15.6434C14.7671 15.7211 14.7037 15.8735 14.7037 15.9856V16.0144C14.7037 16.1265 14.7671 16.2789 14.8449 16.3566L15.6348 17.1474C15.7155 17.225 15.8683 17.2883 15.9779 17.2883H16.0067C16.1191 17.2883 16.2719 17.225 16.3498 17.1474L17.1425 16.3566C17.2204 16.2789 17.2838 16.1265 17.2838 16.0144Z" fill="#29B5E8"/>
<path d="M20.7287 11.5485L27.5004 7.64917C28.4517 7.1028 28.7803 5.88641 28.2297 4.93745C27.6791 3.9885 26.4626 3.66355 25.5113 4.2128L21.7175 6.39827V1.97843C21.7175 0.885694 20.8296 0 19.7371 0C18.6416 0 17.7537 0.885694 17.7537 1.97843V9.63911C17.7162 10.0359 17.7941 10.45 18.0103 10.8239C18.5609 11.7728 19.7774 12.0978 20.7287 11.5485Z" fill="#29B5E8"/>
<path d="M12.582 20.2559C12.1322 20.1697 11.6508 20.2416 11.2242 20.486L4.45251 24.3882C3.50119 24.9346 3.17255 26.1481 3.72316 27.0971C4.27377 28.0489 5.49031 28.3738 6.44163 27.8246L10.2873 25.6104V30.0244C10.2873 31.1143 11.1752 32 12.2706 32C13.3632 32 14.2511 31.1143 14.2511 30.0244V22.2085C14.2511 21.2221 13.5275 20.4055 12.582 20.2559Z" fill="#29B5E8"/>
<path d="M31.7323 11.0999C31.1846 10.1481 29.9652 9.82313 29.0139 10.3724L22.2422 14.2717C21.5936 14.6456 21.2361 15.33 21.2476 16.0259C21.2419 16.7189 21.5993 17.3947 22.2422 17.7627L29.0139 21.665C29.9652 22.2113 31.1817 21.8864 31.7323 20.9374C32.2829 19.9885 31.9543 18.775 31.003 18.2257L27.1689 16.0172L31.003 13.8088C31.9572 13.2624 32.2829 12.0489 31.7323 11.0999Z" fill="#29B5E8"/>
</g>
<defs>
<clipPath id="clip0_3_22">
<rect width="32" height="32" fill="white"/>
</clipPath>
</defs>
</svg>
